<svg xmlns="http://www.w3.org/2000/svg" height="24" viewBox="0 -960 960 960" width="24"><path d="m251.923-399.155 25.384 228.385q.77 4.616 4.039 7.693 3.27 3.077 8.27 3.077h381.153q5 0 8.269-3.077 3.27-3.077 4.039-7.693l26-239.231h-10.154q-37.23 0-68.538-5.5t-84.923-21.115q-24.154-7.385-50.116-10.385-25.961-3-52.115-3-51.385 0-99.462 12.616-48.077 12.615-91.846 38.23Zm-7.692-64.075q47-23.385 97.307-35.077 50.308-11.692 102.693-11.692 29.615 0 58.923 3.807 29.307 3.808 57.923 11.808 51.538 14.385 78.615 19.385 27.077 5 58.231 5h17.846L752.308-800H207.307l36.924 336.77Zm44.77 363.229q-28.308 0-48.692-18.077-20.385-18.077-23-46l-77.308-695.921h679.998l-76.923 695.921q-2.616 27.923-23 46-20.385 18.077-48.692 18.077H289.001ZM277.307-160h405.77-405.77Z"/></svg>